%
M48
M72
T01C0.01378
T02C0.01575
T03C0.01772
T04C0.02400
T05C0.02756
T06C0.02953
T07C0.03150
T08C0.03200
T09C0.03900
T10C0.03937
T11C0.04000
T12C0.04400
T13C0.04724
T14C0.09843
T15C0.12598
%
T01
X140000Y65000
X140000Y80000
X140000Y90000
X150000Y88000
X160000Y93000
X160000Y125000
X175000Y140000
X182500Y147500
X189500Y139500
X195000Y145000
X194000Y156000
X194000Y165000
X189000Y170000
X192000Y176000
X195000Y181000
X207000Y195000
X215000Y206000
X219000Y204000
X200000Y220000
X195000Y220000
X192000Y223000
X189000Y220000
X175000Y220000
X175000Y235000
X175000Y250000
X144000Y253000
X144000Y273000
X144000Y293000
X144000Y313000
X175000Y333000
X165000Y360000
X215000Y328000
X230000Y345000
X245000Y345000
X260000Y333000
X265000Y325000
X280000Y325000
X296000Y329000
X310000Y330000
X310000Y315000
X297000Y310000
X289000Y305000
X280000Y310000
X265000Y310000
X258000Y309000
X263000Y294000
X239000Y290000
X261000Y260000
X251000Y259000
X245000Y254000
X225000Y255000
X214000Y258000
X219000Y242000
X219000Y227000
X215000Y227000
X225000Y227000
X235000Y227000
X243000Y234000
X252000Y215000
X248000Y208000
X247919Y199081
X260000Y192000
X270000Y192000
X278000Y195000
X282000Y183000
X301000Y179000
X302000Y173000
X295000Y160000
X279000Y158000
X295000Y145000
X294000Y139000
X314000Y139000
X332500Y150000
X332500Y160000
X317000Y175000
X314060Y191940
X311030Y193970
X308000Y196000
X308000Y208000
X313000Y209000
X321000Y205000
X289000Y230000
X291000Y236000
X289000Y253000
X284189Y258000
X297000Y269000
X294000Y272000
X294000Y285000
X289000Y292000
X305000Y290000
X315000Y290000
X325000Y290000
X304000Y258000
X330000Y245000
X350000Y245000
X370000Y245000
X390000Y245000
X410000Y245000
X430000Y245000
X445000Y245000
X460000Y240000
X470000Y240000
X465000Y260000
X465000Y270000
X475000Y270000
X475000Y260000
X500000Y240000
X510000Y240000
X505000Y205000
X505000Y195000
X505000Y185000
X465000Y180000
X450000Y180000
X431000Y221000
X382000Y224000
X376000Y188000
X320000Y125000
X345000Y121000
X320000Y98000
X320000Y83000
X326000Y59000
X285000Y85500
X260000Y88000
X265000Y110000
X265000Y118000
X270000Y125000
X225000Y126811
X217500Y135000
X226000Y145000
X226000Y155000
X239000Y158000
X246000Y169000
X244000Y181000
X232000Y185000
X229000Y181000
X223000Y176000
X223000Y170000
X221000Y185000
X211000Y147000
X175000Y175000
X137000Y127000
X205000Y98000
X230000Y98000
X230000Y88000
X186000Y56000
X275000Y208000
X280000Y211000
X270000Y215000
X195000Y275000
X195000Y290000
X180000Y290000
X195000Y305000
X280000Y360000
X295000Y360000
X310000Y360000
X460000Y360000
X470000Y360000
X480000Y360000
X490000Y338000
X500000Y338000
X520000Y360000
X476000Y319000
X528000Y288000
X533000Y315000
T02
X300000Y314000
X300000Y272000
T03
X342000Y237000
X342000Y231000
X326000Y228000
X359000Y229000
X361000Y234000
X379000Y229000
X382000Y215000
X397000Y213000
X399000Y204000
X399000Y194000
X399000Y184000
X393000Y184000
X409000Y184000
X419000Y184000
X429000Y184000
X434000Y215000
X451000Y223000
X476000Y221000
X521000Y219000
X439000Y279000
X439000Y299000
X439000Y319000
X439000Y339000
X439000Y359000
X419000Y359000
X399000Y359000
X379000Y359000
X359000Y359000
X339000Y359000
X327000Y340000
X327000Y323000
X180000Y360000
X371000Y206000
T04
X460000Y322000
X460000Y332000
X460000Y342000
T05
X267606Y145000
X248394Y145000
T06
X358000Y138000
X358000Y128000
X369000Y123000
X369000Y133000
X358000Y118000
X442000Y201000
X480000Y192000
X480000Y182000
X399000Y224000
T07
X505000Y213898
X516811Y195000
T08
X406000Y288000
X396000Y288000
X386000Y288000
X376000Y288000
X366000Y288000
X356000Y288000
X346000Y288000
X336000Y288000
X336000Y318000
X346000Y318000
X356000Y318000
X366000Y318000
X376000Y318000
X386000Y318000
X396000Y318000
X406000Y318000
T09
X208600Y253000
X208600Y235300
X183000Y235300
X183000Y253000
T10
X153000Y228000
X208000Y204000
X175000Y181000
X188000Y293500
X175000Y342000
X260000Y342000
X345000Y210827
X355000Y210827
X355000Y189173
X359646Y181693
X345000Y189173
X422000Y136000
X432000Y136000
X442000Y136000
X452000Y136000
X462000Y136000
X472000Y136000
X482000Y136000
X492000Y136000
X502000Y136000
X502000Y90000
X492000Y90000
X482000Y90000
X472000Y90000
X462000Y90000
X392000Y90000
X382000Y90000
X382000Y104000
X392000Y104000
X493189Y195000
T11
X463000Y191000
X463000Y201000
X463000Y211000
X462000Y166000
X452000Y166000
X442000Y166000
X432000Y166000
X422000Y166000
X412000Y166000
X402000Y166000
X392000Y166000
X382000Y166000
X372000Y166000
X362000Y166000
X310000Y123000
X300000Y123000
X290000Y123000
X290000Y113000
X300000Y113000
X310000Y113000
X306000Y77000
X306000Y67000
X296000Y67000
X296000Y77000
X286000Y77000
X286000Y67000
X276000Y67000
X276000Y77000
X266000Y77000
X266000Y67000
X256000Y67000
X246000Y67000
X246000Y77000
X256000Y77000
X236000Y77000
X236000Y67000
X226000Y67000
X226000Y77000
X216000Y77000
X216000Y67000
X206000Y67000
X206000Y77000
X196000Y77000
X196000Y67000
X186000Y67000
X186000Y77000
X176000Y77000
X176000Y67000
X166000Y67000
X166000Y77000
X177000Y113000
X187000Y113000
X187000Y123000
X177000Y123000
X158000Y133000
X158000Y143000
X158000Y153000
X158000Y163000
X158000Y173000
X158000Y183000
X158000Y193000
X158000Y203000
X158000Y213000
X158000Y243000
X158000Y253000
X158000Y263000
X158000Y273000
X158000Y283000
X158000Y293000
X158000Y303000
X158000Y313000
X158000Y323000
X184984Y342000
X194984Y342000
X204984Y342000
X214984Y342000
X228000Y313000
X228000Y303000
X228000Y293000
X228000Y283000
X228000Y273000
X228000Y263000
X228000Y247500
X228000Y237500
X269984Y342000
X279984Y342000
X289984Y342000
X299984Y342000
X475000Y301000
X475000Y291000
X475000Y281000
X519000Y281000
X529000Y281000
X529000Y271000
X529000Y261000
X519000Y261000
X519000Y271000
X519000Y251000
X519000Y241000
X529000Y241000
X529000Y251000
X529000Y231000
X519000Y231000
X502000Y166000
X492000Y166000
X482000Y166000
X472000Y166000
X472000Y66000
X462000Y66000
X452000Y66000
X442000Y66000
X432000Y66000
X422000Y66000
X412000Y66000
X402000Y66000
X392000Y66000
X382000Y66000
X372000Y66000
X362000Y66000
X252000Y113000
X242000Y113000
X242000Y123000
X252000Y123000
X230000Y123000
X220000Y123000
X210000Y123000
X200000Y123000
X200000Y113000
X210000Y113000
X220000Y113000
X230000Y113000
X482000Y66000
X492000Y66000
X502000Y66000
X515000Y319000
X525000Y319000
X525000Y329000
X525000Y339000
X515000Y339000
X515000Y329000
T12
X496000Y296000
X496000Y256000
X496000Y246000
X456000Y246000
T13
X407740Y343000
X390024Y343000
X371717Y343000
X354000Y343000
T14
X357480Y200000
X342520Y200000
T15
X325000Y112500
X147000Y110000
X147000Y347500
X487500Y350000
X537500Y162500
M30
