G75*
%MOIN*%
%OFA0B0*%
%FSLAX25Y25*%
%IPPOS*%
%LPD*%
%AMOC8*
5,1,8,0,0,1.08239X$1,22.5*
%
%ADD10C,0.13398*%
%ADD11R,0.05918X0.06706*%
%ADD12C,0.09400*%
%ADD13C,0.06800*%
%ADD14R,0.06800X0.06800*%
%ADD15C,0.06800*%
%ADD16C,0.06000*%
%ADD17C,0.07887*%
%ADD18C,0.08674*%
%ADD19C,0.10643*%
%ADD20C,0.04737*%
%ADD21OC8,0.06800*%
%ADD22C,0.07400*%
%ADD23C,0.05200*%
%ADD24C,0.05556*%
%ADD25C,0.23800*%
%ADD26R,0.06700X0.06700*%
%ADD27C,0.06700*%
%ADD28C,0.06706*%
%ADD29C,0.04172*%
%ADD30C,0.05353*%
%ADD31C,0.07100*%
%ADD32C,0.03975*%
D10*
X0325000Y0112500D03*
X0537500Y0162500D03*
D11*
X0450740Y0077000D03*
X0443260Y0077000D03*
X0370740Y0078000D03*
X0363260Y0078000D03*
X0403260Y0151000D03*
X0410740Y0151000D03*
X0370740Y0155000D03*
X0363260Y0155000D03*
X0349740Y0175000D03*
X0342260Y0175000D03*
D12*
X0493189Y0190700D02*
X0493189Y0199300D01*
X0500700Y0213898D02*
X0509300Y0213898D01*
X0516811Y0199300D02*
X0516811Y0190700D01*
D13*
X0502000Y0169000D02*
X0502000Y0163000D01*
X0492000Y0163000D02*
X0492000Y0169000D01*
X0482000Y0169000D02*
X0482000Y0163000D01*
X0472000Y0163000D02*
X0472000Y0169000D01*
X0462000Y0169000D02*
X0462000Y0163000D01*
X0452000Y0163000D02*
X0452000Y0169000D01*
X0442000Y0169000D02*
X0442000Y0163000D01*
X0432000Y0163000D02*
X0432000Y0169000D01*
X0422000Y0169000D02*
X0422000Y0163000D01*
X0412000Y0163000D02*
X0412000Y0169000D01*
X0402000Y0169000D02*
X0402000Y0163000D01*
X0392000Y0163000D02*
X0392000Y0169000D01*
X0382000Y0169000D02*
X0382000Y0163000D01*
X0372000Y0163000D02*
X0372000Y0169000D01*
X0362000Y0169000D02*
X0362000Y0163000D01*
X0460000Y0191000D02*
X0466000Y0191000D01*
X0466000Y0201000D02*
X0460000Y0201000D01*
X0460000Y0211000D02*
X0466000Y0211000D01*
X0472000Y0281000D02*
X0478000Y0281000D01*
X0478000Y0291000D02*
X0472000Y0291000D01*
X0472000Y0301000D02*
X0478000Y0301000D01*
X0231000Y0303000D02*
X0225000Y0303000D01*
X0225000Y0293000D02*
X0231000Y0293000D01*
X0231000Y0283000D02*
X0225000Y0283000D01*
X0225000Y0273000D02*
X0231000Y0273000D01*
X0231000Y0263000D02*
X0225000Y0263000D01*
X0225000Y0247500D02*
X0231000Y0247500D01*
X0231000Y0237500D02*
X0225000Y0237500D01*
X0161000Y0243000D02*
X0155000Y0243000D01*
X0155000Y0253000D02*
X0161000Y0253000D01*
X0161000Y0263000D02*
X0155000Y0263000D01*
X0155000Y0273000D02*
X0161000Y0273000D01*
X0161000Y0283000D02*
X0155000Y0283000D01*
X0155000Y0293000D02*
X0161000Y0293000D01*
X0161000Y0303000D02*
X0155000Y0303000D01*
X0155000Y0313000D02*
X0161000Y0313000D01*
X0161000Y0323000D02*
X0155000Y0323000D01*
X0225000Y0313000D02*
X0231000Y0313000D01*
X0161000Y0213000D02*
X0155000Y0213000D01*
X0155000Y0203000D02*
X0161000Y0203000D01*
X0161000Y0193000D02*
X0155000Y0193000D01*
X0155000Y0183000D02*
X0161000Y0183000D01*
X0161000Y0173000D02*
X0155000Y0173000D01*
X0155000Y0163000D02*
X0161000Y0163000D01*
X0161000Y0153000D02*
X0155000Y0153000D01*
X0155000Y0143000D02*
X0161000Y0143000D01*
X0161000Y0133000D02*
X0155000Y0133000D01*
X0362000Y0069000D02*
X0362000Y0063000D01*
X0372000Y0063000D02*
X0372000Y0069000D01*
X0382000Y0069000D02*
X0382000Y0063000D01*
X0392000Y0063000D02*
X0392000Y0069000D01*
X0402000Y0069000D02*
X0402000Y0063000D01*
X0412000Y0063000D02*
X0412000Y0069000D01*
X0422000Y0069000D02*
X0422000Y0063000D01*
X0432000Y0063000D02*
X0432000Y0069000D01*
X0442000Y0069000D02*
X0442000Y0063000D01*
X0452000Y0063000D02*
X0452000Y0069000D01*
X0462000Y0069000D02*
X0462000Y0063000D01*
X0472000Y0063000D02*
X0472000Y0069000D01*
X0482000Y0069000D02*
X0482000Y0063000D01*
X0492000Y0063000D02*
X0492000Y0069000D01*
X0502000Y0069000D02*
X0502000Y0063000D01*
D14*
X0166000Y0067000D03*
D15*
X0166000Y0077000D03*
X0176000Y0077000D03*
X0176000Y0067000D03*
X0186000Y0067000D03*
X0186000Y0077000D03*
X0196000Y0077000D03*
X0196000Y0067000D03*
X0206000Y0067000D03*
X0206000Y0077000D03*
X0216000Y0077000D03*
X0216000Y0067000D03*
X0226000Y0067000D03*
X0226000Y0077000D03*
X0236000Y0077000D03*
X0236000Y0067000D03*
X0246000Y0067000D03*
X0256000Y0067000D03*
X0256000Y0077000D03*
X0246000Y0077000D03*
X0266000Y0077000D03*
X0266000Y0067000D03*
X0276000Y0067000D03*
X0276000Y0077000D03*
X0286000Y0077000D03*
X0286000Y0067000D03*
X0296000Y0067000D03*
X0296000Y0077000D03*
X0306000Y0077000D03*
X0306000Y0067000D03*
X0299984Y0342000D03*
X0289984Y0342000D03*
X0279984Y0342000D03*
X0269984Y0342000D03*
X0214984Y0342000D03*
X0204984Y0342000D03*
X0194984Y0342000D03*
X0184984Y0342000D03*
D16*
X0336000Y0320600D02*
X0336000Y0315400D01*
X0346000Y0315400D02*
X0346000Y0320600D01*
X0356000Y0320600D02*
X0356000Y0315400D01*
X0366000Y0315400D02*
X0366000Y0320600D01*
X0376000Y0320600D02*
X0376000Y0315400D01*
X0386000Y0315400D02*
X0386000Y0320600D01*
X0396000Y0320600D02*
X0396000Y0315400D01*
X0406000Y0315400D02*
X0406000Y0320600D01*
X0406000Y0290600D02*
X0406000Y0285400D01*
X0396000Y0285400D02*
X0396000Y0290600D01*
X0386000Y0290600D02*
X0386000Y0285400D01*
X0376000Y0285400D02*
X0376000Y0290600D01*
X0366000Y0290600D02*
X0366000Y0285400D01*
X0356000Y0285400D02*
X0356000Y0290600D01*
X0346000Y0290600D02*
X0346000Y0285400D01*
X0336000Y0285400D02*
X0336000Y0290600D01*
D17*
X0354000Y0339457D02*
X0354000Y0346543D01*
X0371717Y0346543D02*
X0371717Y0339457D01*
X0390024Y0339457D02*
X0390024Y0346543D01*
X0407740Y0346543D02*
X0407740Y0339457D01*
D18*
X0355000Y0210827D03*
X0345000Y0210827D03*
X0345000Y0189173D03*
X0355000Y0189173D03*
D19*
X0357480Y0200000D03*
X0342520Y0200000D03*
D20*
X0359646Y0181693D03*
D21*
X0310000Y0123000D03*
X0300000Y0123000D03*
X0290000Y0123000D03*
X0290000Y0113000D03*
X0300000Y0113000D03*
X0310000Y0113000D03*
X0252000Y0113000D03*
X0242000Y0113000D03*
X0242000Y0123000D03*
X0252000Y0123000D03*
X0230000Y0123000D03*
X0220000Y0123000D03*
X0210000Y0123000D03*
X0200000Y0123000D03*
X0200000Y0113000D03*
X0210000Y0113000D03*
X0220000Y0113000D03*
X0230000Y0113000D03*
X0187000Y0113000D03*
X0177000Y0113000D03*
X0177000Y0123000D03*
X0187000Y0123000D03*
X0515000Y0319000D03*
X0525000Y0319000D03*
X0525000Y0329000D03*
X0525000Y0339000D03*
X0515000Y0339000D03*
X0515000Y0329000D03*
X0519000Y0281000D03*
X0529000Y0281000D03*
X0529000Y0271000D03*
X0529000Y0261000D03*
X0519000Y0261000D03*
X0519000Y0271000D03*
X0519000Y0251000D03*
X0519000Y0241000D03*
X0529000Y0241000D03*
X0529000Y0251000D03*
X0529000Y0231000D03*
X0519000Y0231000D03*
D22*
X0496000Y0246000D03*
X0496000Y0256000D03*
X0456000Y0246000D03*
X0496000Y0296000D03*
D23*
X0460000Y0322000D03*
X0460000Y0332000D03*
X0460000Y0342000D03*
D24*
X0269984Y0145000D02*
X0265228Y0145000D01*
X0250772Y0145000D02*
X0246016Y0145000D01*
D25*
X0147000Y0110000D03*
X0147000Y0347500D03*
X0487500Y0350000D03*
D26*
X0208600Y0235300D03*
D27*
X0208600Y0253000D03*
X0183000Y0253000D03*
X0183000Y0235300D03*
D28*
X0153000Y0228000D03*
X0175000Y0181000D03*
X0188000Y0293500D03*
X0175000Y0342000D03*
X0260000Y0342000D03*
D29*
X0327000Y0340000D03*
X0339000Y0359000D03*
X0359000Y0359000D03*
X0379000Y0359000D03*
X0399000Y0359000D03*
X0419000Y0359000D03*
X0439000Y0359000D03*
X0439000Y0339000D03*
X0439000Y0319000D03*
X0439000Y0299000D03*
X0439000Y0279000D03*
X0379000Y0229000D03*
X0361000Y0234000D03*
X0359000Y0229000D03*
X0342000Y0231000D03*
X0342000Y0237000D03*
X0326000Y0228000D03*
X0371000Y0206000D03*
X0382000Y0215000D03*
X0397000Y0213000D03*
X0399000Y0204000D03*
X0399000Y0194000D03*
X0399000Y0184000D03*
X0393000Y0184000D03*
X0409000Y0184000D03*
X0419000Y0184000D03*
X0429000Y0184000D03*
X0434000Y0215000D03*
X0451000Y0223000D03*
X0476000Y0221000D03*
X0521000Y0219000D03*
X0327000Y0323000D03*
X0180000Y0360000D03*
D30*
X0399000Y0224000D03*
X0442000Y0201000D03*
X0480000Y0192000D03*
X0480000Y0182000D03*
X0369000Y0133000D03*
X0369000Y0123000D03*
X0358000Y0118000D03*
X0358000Y0128000D03*
X0358000Y0138000D03*
D31*
X0382000Y0104000D03*
X0392000Y0104000D03*
X0392000Y0090000D03*
X0382000Y0090000D03*
X0422000Y0136000D03*
X0432000Y0136000D03*
X0442000Y0136000D03*
X0452000Y0136000D03*
X0462000Y0136000D03*
X0472000Y0136000D03*
X0482000Y0136000D03*
X0492000Y0136000D03*
X0502000Y0136000D03*
X0502000Y0090000D03*
X0492000Y0090000D03*
X0482000Y0090000D03*
X0472000Y0090000D03*
X0462000Y0090000D03*
X0208000Y0204000D03*
D32*
X0300000Y0272000D03*
X0300000Y0314000D03*
M02*
